<svg height="58" viewBox="0 0 157 58" width="157" xmlns="http://www.w3.org/2000/svg"><g fill="none" transform="translate(1 1)"><rect fill="#101726" height="56" rx="2.08" stroke="#2c303f" stroke-width="1.04" width="154.74"/><path d="m52.927 37.282h-6.155l-1.479 4.363h-2.607l5.83-16.143h2.709l5.83 16.143h-2.652zm-5.518-2.014h4.879l-2.405-7.081h-.067zm22.237.493c0 3.657-1.959 6.007-4.914 6.007a3.991 3.991 0 0 1 -3.704-2.06h-.056v5.83h-2.416v-15.662h2.339v1.958h.044a4.176 4.176 0 0 1 3.749-2.081c2.988 0 4.958 2.361 4.958 6.009zm-2.484 0c0-2.383-1.232-3.95-3.111-3.95-1.847 0-3.089 1.6-3.089 3.95 0 2.371 1.242 3.96 3.089 3.96 1.879 0 3.11-1.556 3.11-3.96zm15.441 0c0 3.657-1.958 6.007-4.913 6.007a3.991 3.991 0 0 1 -3.704-2.06h-.056v5.83h-2.417v-15.662h2.34v1.958h.044a4.176 4.176 0 0 1 3.749-2.081c2.988 0 4.957 2.361 4.957 6.009zm-2.484 0c0-2.383-1.231-3.95-3.11-3.95-1.847 0-3.09 1.6-3.09 3.95 0 2.371 1.243 3.96 3.09 3.96 1.879 0 3.11-1.556 3.11-3.96zm11.048 1.386c.18 1.6 1.735 2.652 3.86 2.652 2.037 0 3.503-1.051 3.503-2.495 0-1.253-.884-2.003-2.977-2.517l-2.092-.504c-2.966-.716-4.342-2.102-4.342-4.352 0-2.785 2.428-4.699 5.875-4.699 3.413 0 5.752 1.914 5.83 4.699h-2.439c-.146-1.611-1.478-2.584-3.425-2.584s-3.279.984-3.279 2.416c0 1.142.851 1.813 2.933 2.327l1.779.437c3.313.783 4.69 2.114 4.69 4.475 0 3.02-2.407 4.912-6.235 4.912-3.58 0-5.998-1.847-6.155-4.767zm15.13-10.057v2.785h2.24v1.913h-2.24v6.489c0 1.008.449 1.478 1.433 1.478.266-.005.531-.024.795-.056v1.901c-.443.083-.892.12-1.342.112-2.384 0-3.313-.895-3.313-3.177v-6.747h-1.712v-1.913h1.712v-2.785h2.428zm3.536 8.67c0-3.703 2.181-6.03 5.583-6.03 3.414 0 5.585 2.327 5.585 6.03 0 3.714-2.16 6.03-5.585 6.03-3.423 0-5.583-2.316-5.583-6.03zm8.706 0c0-2.54-1.164-4.039-3.123-4.039-1.958 0-3.12 1.51-3.12 4.04 0 2.55 1.162 4.038 3.12 4.038 1.959 0 3.123-1.488 3.123-4.038zm4.455-5.885h2.304v2.003h.056a2.808 2.808 0 0 1 2.832-2.126c.279-.001.556.03.828.09v2.26a3.379 3.379 0 0 0 -1.086-.146 2.435 2.435 0 0 0 -2.518 2.708v6.98h-2.416v-11.768zm17.162 8.313c-.325 2.137-2.407 3.603-5.07 3.603-3.424 0-5.55-2.294-5.55-5.975 0-3.691 2.137-6.086 5.449-6.086 3.257 0 5.305 2.237 5.305 5.806v.828h-8.315v.146a3.065 3.065 0 0 0 3.167 3.333 2.664 2.664 0 0 0 2.72-1.655zm-8.17-3.513h5.887a2.83 2.83 0 0 0 -2.888-2.987 2.98 2.98 0 0 0 -2.998 2.987zm-84.88-21.325a3.433 3.433 0 0 1 3.651 3.855c0 2.478-1.34 3.902-3.65 3.902h-2.803v-7.757zm-1.597 6.66h1.463a2.44 2.44 0 0 0 2.558-2.79 2.445 2.445 0 0 0 -2.558-2.774h-1.463zm6.61-1.832a2.773 2.773 0 1 1 5.522 0 2.773 2.773 0 1 1 -5.523 0zm4.333 0c0-1.27-.57-2.011-1.57-2.011-1.005 0-1.57.742-1.57 2.01 0 1.28.565 2.016 1.57 2.016 1 0 1.57-.741 1.57-2.015zm8.53 2.93h-1.199l-1.21-4.312h-.091l-1.205 4.311h-1.188l-1.614-5.854h1.172l1.05 4.467h.086l1.203-4.467h1.109l1.204 4.467h.091l1.044-4.467h1.156l-1.608 5.854zm2.965-5.855h1.113v.93h.086a1.753 1.753 0 0 1 1.747-1.043 1.905 1.905 0 0 1 2.027 2.178v3.789h-1.156v-3.5c0-.94-.409-1.408-1.263-1.408a1.343 1.343 0 0 0 -1.398 1.484v3.424h-1.156zm6.814-2.285h1.156v8.14h-1.157v-8.14zm2.762 5.21a2.773 2.773 0 1 1 5.523 0 2.774 2.774 0 1 1 -5.523 0zm4.334 0c0-1.27-.57-2.011-1.57-2.011-1.005 0-1.57.742-1.57 2.01 0 1.28.565 2.016 1.57 2.016 1 0 1.57-.741 1.57-2.015zm2.406 1.274c0-1.054.785-1.662 2.178-1.748l1.586-.091v-.506c0-.618-.41-.967-1.199-.967-.645 0-1.092.237-1.22.65h-1.119c.118-1.005 1.064-1.65 2.392-1.65 1.468 0 2.296.73 2.296 1.967v4h-1.112v-.823h-.092a1.97 1.97 0 0 1 -1.758.92 1.77 1.77 0 0 1 -1.952-1.752zm3.764-.5v-.49l-1.43.091c-.806.054-1.172.329-1.172.845 0 .527.457.833 1.086.833a1.38 1.38 0 0 0 1.516-1.28zm2.669-.774c0-1.85.951-3.022 2.43-3.022a1.93 1.93 0 0 1 1.796 1.027h.086v-3.215h1.156v8.14h-1.107v-.926h-.092a2.032 2.032 0 0 1 -1.838 1.022c-1.49 0-2.431-1.172-2.431-3.026zm1.194 0c0 1.241.585 1.988 1.564 1.988.974 0 1.576-.758 1.576-1.983 0-1.22-.608-1.989-1.576-1.989-.973 0-1.564.752-1.564 1.984zm9.055 0a2.773 2.773 0 1 1 5.523 0 2.773 2.773 0 1 1 -5.523 0zm4.334 0c0-1.27-.57-2.011-1.57-2.011-1.005 0-1.57.742-1.57 2.01 0 1.28.565 2.016 1.57 2.016 1 0 1.57-.741 1.57-2.015zm2.74-2.925h1.112v.93h.086a1.753 1.753 0 0 1 1.747-1.043 1.905 1.905 0 0 1 2.027 2.178v3.789h-1.156v-3.5c0-.94-.409-1.408-1.263-1.408a1.343 1.343 0 0 0 -1.398 1.484v3.424h-1.156v-5.854zm11.502-1.457v1.484h1.268v.973h-1.268v3.01c0 .613.252.882.828.882.147 0 .294-.01.44-.027v.962a3.792 3.792 0 0 1 -.628.06c-1.286 0-1.797-.453-1.797-1.581v-3.306h-.93v-.973h.93v-1.484zm2.847-.828h1.145v3.226h.091a1.802 1.802 0 0 1 1.786-1.049 1.93 1.93 0 0 1 2.016 2.183v3.78h-1.156v-3.495c0-.935-.436-1.409-1.252-1.409a1.368 1.368 0 0 0 -1.475 1.484v3.419h-1.155zm11.776 6.559a2.377 2.377 0 0 1 -2.537 1.693 2.66 2.66 0 0 1 -2.705-3.021 2.7 2.7 0 0 1 2.7-3.059c1.63 0 2.612 1.113 2.612 2.951v.403h-4.135v.065a1.547 1.547 0 0 0 1.56 1.677 1.404 1.404 0 0 0 1.393-.71h1.112zm-4.065-1.887h2.958a1.412 1.412 0 0 0 -1.441-1.516 1.498 1.498 0 0 0 -1.517 1.516zm-99.952 10.75a6.433 6.433 0 0 1 3.065-5.397 6.588 6.588 0 0 0 -5.19-2.805c-2.184-.229-4.3 1.307-5.413 1.307-1.135 0-2.848-1.284-4.693-1.246a6.912 6.912 0 0 0 -5.816 3.546c-2.515 4.353-.639 10.75 1.77 14.27 1.205 1.722 2.614 3.647 4.457 3.578 1.804-.074 2.477-1.15 4.655-1.15 2.157 0 2.789 1.15 4.67 1.107 1.934-.031 3.154-1.73 4.317-3.47a14.25 14.25 0 0 0 1.974-4.02 6.217 6.217 0 0 1 -3.796-5.72zm-3.552-10.516a6.333 6.333 0 0 0 1.45-4.538 6.447 6.447 0 0 0 -4.171 2.158 6.026 6.026 0 0 0 -1.488 4.37 5.33 5.33 0 0 0 4.21-1.99z" fill="#fff"/></g></svg>