<svg width="152" height="47" fill="none" xmlns="http://www.w3.org/2000/svg">
    <rect x="1" y="1" width="150" height="45" rx="2.08" fill="#101726" stroke="#2C303F" stroke-width="1.04"/>
    <path d="m50.264 29.437-2.496-6.744-2.484 6.744h4.98zm-8.7 5.003 5.173-13.557h2.074l5.174 13.557h-1.91l-1.237-3.48h-6.104l-1.237 3.48h-1.934zM57.5 32.917v5.391h-1.67V24.27h1.67v1.535c.353-.604.795-1.05 1.33-1.34.542-.3 1.181-.446 1.922-.446 1.236 0 2.24.492 3.011 1.476.78.977 1.167 2.267 1.167 3.872 0 1.597-.388 2.883-1.167 3.872-.771.976-1.775 1.465-3.011 1.465-.74 0-1.38-.144-1.923-.434-.534-.299-.976-.752-1.329-1.353zm5.69-3.55c0-1.229-.256-2.194-.768-2.895-.496-.702-1.186-1.054-2.073-1.054-.884 0-1.585.352-2.097 1.054-.504.701-.756 1.666-.756 2.895s.252 2.194.756 2.895c.511.694 1.21 1.043 2.097 1.043.883 0 1.577-.35 2.073-1.043.512-.701.768-1.666.768-2.895zm6.127 3.55v5.391h-1.682V24.27h1.682v1.535c.353-.604.79-1.05 1.318-1.34.542-.3 1.186-.446 1.934-.446 1.228 0 2.228.492 3 1.476.778.977 1.166 2.267 1.166 3.872 0 1.597-.388 2.883-1.167 3.872-.771.976-1.77 1.465-3 1.465-.747 0-1.39-.144-1.933-.434-.528-.299-.97-.752-1.318-1.353zm5.678-3.55c0-1.229-.256-2.194-.768-2.895-.496-.702-1.186-1.054-2.073-1.054-.884 0-1.585.352-2.097 1.054-.496.701-.744 1.666-.744 2.895s.248 2.194.744 2.895c.512.694 1.21 1.043 2.097 1.043.883 0 1.577-.35 2.073-1.043.512-.701.768-1.666.768-2.895zm13.762 3.14v-3.64H85.77v-1.512h4.81v5.83a8.063 8.063 0 0 1-2.349 1.143 9.526 9.526 0 0 1-2.725.376c-2.123 0-3.782-.62-4.98-1.857-1.19-1.236-1.786-2.96-1.786-5.174 0-2.213.596-3.937 1.786-5.174 1.198-1.244 2.86-1.868 4.98-1.868.884 0 1.721.113 2.508.334a7.845 7.845 0 0 1 2.21.96v1.958a7.317 7.317 0 0 0-2.163-1.306 6.702 6.702 0 0 0-2.403-.434c-1.655 0-2.903.461-3.744 1.383-.826.93-1.237 2.314-1.237 4.143 0 1.83.411 3.21 1.237 4.132.84.922 2.089 1.384 3.744 1.384.647 0 1.228-.055 1.74-.16a4.576 4.576 0 0 0 1.36-.519zm11.325-3.186h-1.66c-1.352 0-2.286.154-2.805.468-.52.307-.779.834-.779 1.582 0 .597.194 1.07.585 1.418.388.345.919.516 1.593.516.93 0 1.674-.33 2.232-.985.558-.655.838-1.53.838-2.624v-.376h-.004zm1.67-.687v5.806h-1.67v-1.546c-.38.62-.857 1.077-1.419 1.376-.573.29-1.271.434-2.096.434-1.04 0-1.869-.291-2.485-.872-.612-.59-.914-1.376-.914-2.36 0-1.136.38-2 1.143-2.59.771-.58 1.914-.872 3.434-.872h2.337v-.158c0-.772-.252-1.369-.756-1.787-.504-.419-1.213-.628-2.128-.628-.581 0-1.143.07-1.693.205a6.646 6.646 0 0 0-1.593.628v-1.546c.612-.236 1.205-.41 1.786-.527a7.863 7.863 0 0 1 1.67-.182c1.474 0 2.574.38 3.299 1.143.725.771 1.085 1.926 1.085 3.476zm3.446 5.806V20.314h1.67V34.44h-1.67zm5.166 0V20.314h1.67V34.44h-1.67zm13.816-5.507v.825h-7.681c.07 1.144.411 2.024 1.031 2.632.624.597 1.492.891 2.6.891.64 0 1.26-.077 1.857-.228a8.181 8.181 0 0 0 1.798-.71v1.582c-.597.252-1.209.445-1.845.585a9.506 9.506 0 0 1-1.91.194c-1.62 0-2.903-.473-3.861-1.419-.945-.938-1.418-2.213-1.418-3.825 0-1.67.45-2.992 1.353-3.96.899-.985 2.116-1.477 3.639-1.477 1.368 0 2.445.441 3.24 1.329.798.876 1.197 2.07 1.197 3.58zm-7.635-.48h5.965c-.016-.915-.275-1.648-.779-2.198-.496-.543-1.155-.814-1.98-.814-.931 0-1.679.264-2.244.79-.559.528-.876 1.268-.962 2.221zm16.201-4.341.011 1.716a2.344 2.344 0 0 0-.62-.24 3.045 3.045 0 0 0-.721-.081c-.945 0-1.674.31-2.186.926-.503.613-.755 1.492-.755 2.643v5.36h-1.671V24.27h1.671v1.582c.352-.62.81-1.078 1.375-1.376.566-.306 1.248-.457 2.051-.457.116 0 .244.011.387.035.136.007.291.027.458.058zm10.464.159-4.465 11.107c-.473 1.213-.934 2.008-1.384 2.38-.449.368-1.05.55-1.798.55h-1.341v-1.395h.985c.457 0 .817-.113 1.077-.333.252-.214.531-.73.837-1.547l.31-.756-4.123-10.007h1.775l3.181 7.946 3.171-7.946h1.775z" fill="#fff"/>
    <path d="M41.459 16.12V9.123h4.418v.79h-3.48v2.074h3.333v.802h-3.333v2.531h3.573v.802H41.46v-.004zm7.902-3.733-2.174-3.263h1.02l1.74 2.6 1.74-2.6h1.02l-2.245 3.356 2.391 3.64h-1.019l-1.957-2.977-1.992 2.976h-1.02l2.496-3.732zm6.868-2.484h-1.19v2.624h1.19c.442 0 .787-.113 1.03-.333.237-.23.358-.559.358-.985 0-.41-.12-.732-.357-.961-.244-.229-.59-.345-1.031-.345zm-2.128 6.216V9.124h2.128c.787 0 1.38.174 1.787.527.395.36.596.876.596 1.558 0 .694-.197 1.217-.596 1.57-.403.352-1 .527-1.787.527h-1.19v2.817h-.938v-.004zm5.783 0V9.124h.95v6.193h3.41v.802h-4.36zm7.852-6.352c-.686 0-1.237.256-1.647.768-.396.511-.597 1.209-.597 2.097 0 .875.197 1.577.597 2.096.41.512.96.768 1.647.768.686 0 1.228-.256 1.624-.768.403-.52.608-1.217.608-2.096 0-.884-.201-1.586-.608-2.097-.396-.516-.938-.768-1.624-.768zm0-.767c.976 0 1.76.33 2.348.984.59.655.88 1.539.88 2.644 0 1.108-.294 1.988-.88 2.643-.589.655-1.372.984-2.348.984-.985 0-1.775-.33-2.372-.984-.59-.655-.88-1.539-.88-2.643 0-1.109.295-1.989.88-2.644C65.96 9.326 66.75 9 67.736 9zm8.026 3.833c.206.07.403.217.597.446.19.22.384.53.585.926l.961 1.91h-1.019l-.891-1.798c-.237-.465-.461-.775-.675-.926-.22-.151-.519-.229-.891-.229h-1.03v2.954h-.95V9.124h2.139c.802 0 1.399.167 1.798.504.388.33.585.833.585 1.511 0 .442-.104.81-.31 1.101a1.59 1.59 0 0 1-.899.593zm-1.178-2.93h-1.19v2.484h1.19c.457 0 .802-.108 1.03-.321.237-.214.358-.524.358-.927 0-.41-.12-.72-.357-.926-.229-.205-.574-.31-1.031-.31zm4.534 6.216V9.124h4.419v.79h-3.469v2.074h3.333v.802h-3.333v2.531h3.562v.802h-4.511v-.004zm9.112 0V9.124h.95v6.995h-.95zm1.868-6.204v-.791h5.918v.79h-2.484v6.205h-.95V9.915h-2.484zm12.72-.148c-.686 0-1.232.256-1.635.768-.404.511-.609 1.209-.609 2.097 0 .875.202 1.577.609 2.096.403.512.949.768 1.635.768s1.232-.256 1.636-.768c.395-.52.596-1.217.596-2.096 0-.884-.197-1.586-.596-2.097-.404-.516-.95-.768-1.636-.768zm0-.767c.984 0 1.771.33 2.36.984.589.655.88 1.539.88 2.644 0 1.108-.294 1.988-.88 2.643-.585.655-1.376.984-2.36.984s-1.771-.33-2.36-.984c-.59-.655-.88-1.539-.88-2.643 0-1.109.294-1.989.88-2.644.589-.658 1.376-.984 2.36-.984zm4.717 7.12V9.123h1.271l3.104 5.852V9.124h.927v6.995h-1.283l-3.105-5.852v5.852h-.914z" fill="#FEFEFE"/>
    <path d="M29.483 9.146H17.026C11.151 9.146 9 11.286 9 17.161v12.457c0 5.875 2.151 8.026 8.026 8.026h12.457c5.864 0 8.015-2.151 8.015-8.026V17.16c0-5.875-2.14-8.015-8.015-8.015z" fill="#B91428"/>
    <path fill-rule="evenodd" clip-rule="evenodd" d="m21.162 26.343-.345.768h-.767l1.635-3.721h.663l1.636 3.72h-.791l-.334-.767h-1.697zm.271-.674h1.144l-.574-1.33-.57 1.33zm12.139-2.279h.755v3.72h-.755v-3.72zm-2.965 3.046h2.073v.675h-2.817V23.39h2.736v.686h-1.992v.756h1.376v.686h-1.376v.918zm-2.143-3.046h.79l-1.294 3.732h-.64l-.848-2.45-.85 2.45h-.62l-1.305-3.732h.814l.825 2.566.837-2.566h.62l.85 2.566.82-2.566zm-9.558 0h.756v2.108c0 1.066-.585 1.682-1.616 1.682-1.008 0-1.593-.608-1.593-1.658v-2.128h.756v2.108c0 .628.298.961.849.961.55 0 .848-.333.848-.938V23.39zm-4.259 0h.756v3.732h-.756V25.6h-1.705v1.523h-.756V23.39h.756v1.5h1.705v-1.5zm8.608-4.74a4.74 4.74 0 0 1-4.74-4.74h.663c0 2.244 1.833 4.066 4.077 4.066 2.244 0 4.077-1.822 4.077-4.066h.663a4.75 4.75 0 0 1-4.74 4.74z" fill="#fff"/>
</svg>
