<svg height="58" viewBox="0 0 178 58" width="178" xmlns="http://www.w3.org/2000/svg" xmlns:xlink="http://www.w3.org/1999/xlink"><linearGradient id="a" x1="61.064%" x2="26.438%" y1="4.948%" y2="71.907%"><stop offset="0" stop-color="#00a0ff"/><stop offset=".01" stop-color="#00a1ff"/><stop offset=".26" stop-color="#00beff"/><stop offset=".51" stop-color="#00d2ff"/><stop offset=".76" stop-color="#00dfff"/><stop offset="1" stop-color="#00e3ff"/></linearGradient><linearGradient id="b" x1="107.685%" x2="-130.64%" y1="50%" y2="50%"><stop offset="0" stop-color="#ffe000"/><stop offset=".41" stop-color="#ffbd00"/><stop offset=".78" stop-color="#ffa500"/><stop offset="1" stop-color="#ff9c00"/></linearGradient><linearGradient id="c" x1="86.219%" x2="-50.15%" y1="30.963%" y2="135.753%"><stop offset="0" stop-color="#ff3a44"/><stop offset="1" stop-color="#c31162"/></linearGradient><linearGradient id="d" x1="-18.754%" x2="42.121%" y1="-11.663%" y2="35.135%"><stop offset="0" stop-color="#32a071"/><stop offset=".07" stop-color="#2da771"/><stop offset=".48" stop-color="#15cf74"/><stop offset=".8" stop-color="#06e775"/><stop offset="1" stop-color="#00f076"/></linearGradient><g fill="none" transform="translate(1 1)"><rect fill="#101726" height="56" rx="2.08" stroke="#2c303f" stroke-width="1.04" width="175.74"/><path d="m88.703 30.275a5.529 5.529 0 0 0 -5.507 5.542 5.529 5.529 0 0 0 5.542 5.508 5.529 5.529 0 0 0 5.524-5.525 5.443 5.443 0 0 0 -1.607-3.94 5.458 5.458 0 0 0 -3.952-1.585zm0 8.879a3.36 3.36 0 0 1 -3.265-1.9 3.35 3.35 0 0 1 .572-3.73 3.362 3.362 0 0 1 3.684-.839 3.354 3.354 0 0 1 2.133 3.115 3.195 3.195 0 0 1 -.854 2.335 3.204 3.204 0 0 1 -2.27 1.019zm-12.12-8.879a5.529 5.529 0 0 0 -5.52 5.534 5.529 5.529 0 0 0 5.538 5.516 5.529 5.529 0 0 0 5.528-5.525 5.443 5.443 0 0 0 -1.606-3.94 5.458 5.458 0 0 0 -3.953-1.585zm0 8.879a3.36 3.36 0 0 1 -3.273-1.89 3.35 3.35 0 0 1 .562-3.734 3.362 3.362 0 0 1 3.686-.845 3.354 3.354 0 0 1 2.137 3.115 3.195 3.195 0 0 1 -.854 2.335 3.204 3.204 0 0 1 -2.27 1.019zm-14.436-7.176v2.34h5.623a4.898 4.898 0 0 1 -1.301 2.951 5.758 5.758 0 0 1 -4.335 1.716 6.244 6.244 0 0 1 -6.249-6.24 6.244 6.244 0 0 1 6.249-6.24 5.993 5.993 0 0 1 4.257 1.677l1.653-1.651a8.194 8.194 0 0 0 -5.897-2.431 8.608 8.608 0 0 0 -7.73 4.194 8.583 8.583 0 0 0 0 8.785 8.608 8.608 0 0 0 7.73 4.194 7.816 7.816 0 0 0 6-2.405 7.794 7.794 0 0 0 2.032-5.486 7.62 7.62 0 0 0 -.13-1.469zm58.983 1.82a5.206 5.206 0 0 0 -4.738-3.523 5.21 5.21 0 0 0 -3.802 1.636 5.196 5.196 0 0 0 -1.405 3.889 5.404 5.404 0 0 0 1.57 3.928 5.42 5.42 0 0 0 3.923 1.597c1.85.01 3.58-.908 4.608-2.444l-1.887-1.3a3.164 3.164 0 0 1 -2.72 1.534 2.812 2.812 0 0 1 -2.683-1.677l7.408-3.055zm-7.55 1.846a3.026 3.026 0 0 1 2.89-3.224 2.148 2.148 0 0 1 2.057 1.17zm-6.014 5.356h2.434v-16.25h-2.434zm-3.984-9.49h-.09a3.908 3.908 0 0 0 -2.917-1.3 5.541 5.541 0 0 0 -5.277 5.532 5.541 5.541 0 0 0 5.277 5.531 3.777 3.777 0 0 0 2.916-1.3h.078v.793c0 2.119-1.132 3.25-2.955 3.25a3.059 3.059 0 0 1 -2.786-1.963l-2.121.884a5.272 5.272 0 0 0 4.907 3.263c2.851 0 5.207-1.677 5.207-5.759v-9.841h-2.239zm-2.786 7.644a3.369 3.369 0 0 1 -3.075-3.354c0-1.745 1.335-3.2 3.075-3.354.842.043 1.63.424 2.186 1.055s.834 1.46.77 2.299a3.091 3.091 0 0 1 -.766 2.311 3.1 3.1 0 0 1 -2.203 1.043zm31.738-14.404h-5.82v16.25h2.435v-6.162h3.398a5.066 5.066 0 0 0 4.686-2.412 5.051 5.051 0 0 0 0-5.264 5.066 5.066 0 0 0 -4.686-2.412zm0 7.8h-3.398v-5.538h3.45a2.79 2.79 0 0 1 2.792 2.788 2.79 2.79 0 0 1 -2.792 2.789zm15.01-2.34a4.557 4.557 0 0 0 -4.336 2.483l2.161.897a2.305 2.305 0 0 1 2.213-1.196 2.345 2.345 0 0 1 2.604 2.093v.169a5.382 5.382 0 0 0 -2.539-.624c-2.33 0-4.686 1.3-4.686 3.653a3.755 3.755 0 0 0 1.262 2.639 3.765 3.765 0 0 0 2.773.936 3.425 3.425 0 0 0 3.125-1.56h.078v1.3h2.343v-6.253c0-2.847-2.16-4.498-4.934-4.498l-.065-.039zm-.3 8.905c-.794 0-1.9-.403-1.9-1.378 0-1.3 1.38-1.729 2.603-1.729.773-.02 1.537.17 2.213.546a2.94 2.94 0 0 1 -2.851 2.6zm13.838-8.515-2.786 7.046h-.078l-2.89-7.046h-2.604l4.335 9.854-2.473 5.473h2.538l6.666-15.327h-2.707zm-21.883 10.4h2.434v-16.25h-2.433v16.25z" fill="#fff"/><path d="m61.73 15.312a3.52 3.52 0 0 1 -.976 2.6 3.79 3.79 0 0 1 -2.864 1.157 4.1 4.1 0 0 1 -3.76-2.536 4.09 4.09 0 0 1 .883-4.445 3.908 3.908 0 0 1 2.877-1.17 4.04 4.04 0 0 1 1.601.325c.471.19.89.488 1.224.871l-.69.689a2.605 2.605 0 0 0 -2.135-.923 3.022 3.022 0 0 0 -2.182.915 3.014 3.014 0 0 0 -.851 2.205 3.068 3.068 0 0 0 1.852 2.859 3.075 3.075 0 0 0 3.355-.61c.4-.434.632-.996.65-1.586h-2.824v-.936h3.788c.035.193.052.389.052.585zm5.962-3.25h-3.514v2.47h3.202v.936h-3.202v2.47h3.514v.962h-4.556v-7.8h4.556zm4.27 6.838h-1.002v-6.838h-2.187v-.962h5.427v.962h-2.239v6.838zm6.066 0v-7.8h1.003v7.8zm5.455 0h-1.003v-6.838h-2.187v-.962h5.364v.962h-2.174zm12.34-1.014a4.065 4.065 0 0 1 -5.727 0 4.208 4.208 0 0 1 0-5.785 4.038 4.038 0 0 1 5.728 0 4.195 4.195 0 0 1 0 5.785zm-4.985-.65a3.01 3.01 0 0 0 4.244 0 3.325 3.325 0 0 0 0-4.472 3.01 3.01 0 0 0 -4.244 0 3.325 3.325 0 0 0 0 4.472zm7.55 1.664v-7.8h1.224l3.801 6.071v-6.071h1.002v7.8h-1.041l-3.97-6.357v6.357z" fill="#fff" stroke="#fff" stroke-width=".5"/><path d="m.875.702a2.598 2.598 0 0 0 -.6 1.82v28.756c-.039.66.175 1.312.6 1.82l.09.091 16.13-16.094v-.377l-16.13-16.107z" fill="url(#a)" transform="translate(12.716 11.1)"/><path d="m22.432 22.464-5.337-5.369v-.377l5.337-5.382.117.065 6.392 3.627c1.822 1.027 1.822 2.717 0 3.757l-6.366 3.614z" fill="url(#b)" transform="translate(12.716 11.1)"/><path d="m22.588 22.386-5.493-5.486-16.22 16.198a2.124 2.124 0 0 0 2.707.078l19.02-10.79" fill="url(#c)" transform="translate(12.716 11.1)"/><path d="m22.588 11.414-19.018-10.79a2.124 2.124 0 0 0 -2.708.078l16.233 16.198z" fill="url(#d)" transform="translate(12.716 11.1)"/><path d="m35.148 33.369-18.863 10.725a2.176 2.176 0 0 1 -2.603 0l-.091.091.09.091c.771.58 1.834.58 2.604 0l19.02-10.79z" fill="#000" opacity=".2"/><path d="m13.59 44.016a2.598 2.598 0 0 1 -.598-1.82v.195c-.04.66.174 1.312.599 1.82l.09-.091-.09-.104zm28.068-14.326-6.51 3.679.118.117 6.392-3.614a2.275 2.275 0 0 0 1.301-1.872 2.418 2.418 0 0 1 -1.302 1.69z" fill="#000" opacity=".12"/><path d="m16.285 11.906 25.372 14.404a2.418 2.418 0 0 1 1.302 1.69 2.275 2.275 0 0 0 -1.302-1.872l-25.372-14.404c-1.822-1.027-3.306-.169-3.306 1.911v.195c.039-2.093 1.497-2.951 3.306-1.924z" fill="#fff" opacity=".25"/></g></svg>